<?xml version="1.0" encoding="utf-8"?>
<!-- Generator: Adobe Illustrator 23.0.3, SVG Export Plug-In . SVG Version: 6.00 Build 0)  -->
<svg version="1.1" id="Layer_1" xmlns="http://www.w3.org/2000/svg" xmlns:xlink="http://www.w3.org/1999/xlink" x="0px" y="0px"
	 viewBox="0 0 32 36" style="enable-background:new 0 0 32 36;" xml:space="preserve">
<style type="text/css">
	.st0{fill:#B0A9DF;}
	.st1{fill:#1D97FF;}
	.st2{fill:#FFFFFF;}
	.st3{fill:#FFD24A;}
	.st4{fill:none;stroke:#303030;stroke-width:0.75;stroke-linecap:round;stroke-linejoin:round;stroke-miterlimit:10;}
</style>
<g id="Icons">
	<g>
		<path class="st0" d="M6.5,13.1c0,0-1.8,7.5,0,9.9l2,2.7v5.7l3,3.6h8.8l3-3.4v-5.9l2.3-3.1c0,0,1-4-0.2-9.5c0,0-6.2,1.7-8.8,3.4
			h-1.4C15.3,16.5,8.1,13.2,6.5,13.1z"/>
		<path class="st1" d="M5.8,5.1c4.1-6,18-5.1,20.4,0.3c0,0,0.6,3.6-2.2,5.5s-16.6,0-16.6,0S5.8,10.8,5.8,5.1z"/>
		<path class="st2" d="M8.2,16.2l4.2,1.6C12.5,17.8,9.6,20.9,8.2,16.2z"/>
		<path class="st2" d="M23.3,16.3L19,17.8C19,17.8,21.9,21,23.3,16.3z"/>
		<path class="st3" d="M12.1,1.5l1.6,5.8c0,0-3.5,1.2-4,2.2c0,0-5-2.3-4.2-7.9c0,0-2.7,4.3-2.4,11.3l-1.8,0.3c0,0-1.7,4.6,1.3,8.5
			L4.3,22L4,25l4.5,6.3v-5.7c0,0-2.1-0.8-2.6-4.2s0.6-8.3,0.6-8.3l8.8,3.4h1.4c0,0,5.4-2.7,8.8-3.4c0,0,1,5,0.2,9.5l-2.3,3.1v5.9
			L28,25l-0.2-3l1.7-0.3c0,0,2.4-2,1.3-8.5L28.9,13c0,0,0.8-7.3-2.4-11.3c0,0,1.2,5.5-4.5,8c0,0-3-1.9-4.1-2.1l1.7-5.9
			C19.6,1.6,15.8,0.3,12.1,1.5z"/>
		<path class="st4" d="M16,1c0,0-7.2-0.2-10.2,4.1"/>
		<path class="st4" d="M5.5,1.6c0,0-1.4,7.2,7,8.7l2.7,3.9v2.3c0,0-6.3-3.3-8.8-3.4c0,0-1.5,6.6,0,9.9c0,0-3.6-4.9-3.4-10.7
			C3.1,12.3,2.8,6.9,5.5,1.6z"/>
		<path class="st4" d="M3.1,13l-1.8,0.2c0,0-1.6,5.4,1.4,8.6L4.3,22"/>
		<path class="st4" d="M4.5,19.1L4,25c0,0,4.6,7.4,7.5,9.9l4.1,0.2"/>
		<polyline class="st4" points="6.6,23 8.6,25.6 8.6,31.6 		"/>
		<path class="st4" d="M16,1c0,0,7.2-0.2,10.2,4.1"/>
		<path class="st4" d="M26.5,1.6c0,0,1.4,7.2-7,8.7l-2.7,3.9v2.3c0,0,6.3-3.3,8.8-3.4c0,0,1.5,6.6,0,9.9c0,0,3.6-4.9,3.4-10.7
			C28.9,12.3,29.2,6.9,26.5,1.6z"/>
		<path class="st4" d="M28.9,13l1.8,0.2c0,0,1.6,5.4-1.4,8.6L27.7,22"/>
		<path class="st4" d="M27.5,19.1L28,25c0,0-4.6,7.4-7.5,9.9l-5,0.2"/>
		<polyline class="st4" points="23.4,31.5 23.4,25.6 25.4,23 		"/>
		<line class="st4" x1="15.3" y1="16.5" x2="16.7" y2="16.5"/>
		<path class="st4" d="M9.7,9.5c0,0,5.7-5,12.3,0.2"/>
		<line class="st4" x1="12.1" y1="1.5" x2="13.8" y2="7.5"/>
		<line class="st4" x1="19.6" y1="1.3" x2="17.8" y2="7.6"/>
		<polyline class="st4" points="11,28 12.1,27.1 20.2,27.1 21,28 		"/>
		<line class="st4" x1="14.7" y1="29.3" x2="17.3" y2="29.3"/>
		<line class="st4" x1="15.7" y1="35" x2="15.7" y2="32.5"/>
		<path class="st4" d="M8.2,16.2l4.2,1.6C12.5,17.8,9.6,20.9,8.2,16.2z"/>
		<path class="st4" d="M23.3,16.3L19,17.8C19,17.8,21.9,21,23.3,16.3z"/>
		<path class="st4" d="M10.5,23.9c0.3-0.7,2.5-2.2,2.5-2.2s-0.9,1.1,0,1.2c0.9,0.1,1.6,0.4,1.6,0.5c0.1,0.1,1.1,0.9,2.5,0.2
			s2.3-0.6,2.3-0.6s0.5-0.9-0.2-1.4c0,0,2.4,1.5,3,2.8"/>
		<line class="st4" x1="14.9" y1="18.4" x2="14.9" y2="21"/>
	</g>
</g>
</svg>
